#!OML:ASF F:\VICON\USERDATA\INSTALL\rory3\rory3.ASF
:FULLY-SPECIFIED
:DEGREES
2481
root 5.14525 17.671 1.47868 11.9037 -77.0221 -4.31622
lowerback 6.12982 0.6724 0.948261
upperback 3.46413 0.839327 4.25757
thorax 0.085242 0.341702 3.80985
lowerneck -19.1053 -0.474193 -11.0487
upperneck 32.4594 -0.0949153 7.69351
head 14.3245 -0.544099 5.02842
rclavicle 2.06736e-014 -1.59028e-014
rhumerus -5.27774 29.0792 -98.9333
rradius 61.8539
rwrist 5.57378
rhand -41.7503 5.1627
rfingers 7.12502
rthumb -14.6546 -24.2994
lclavicle 2.06736e-014 -1.59028e-014
lhumerus 3.18054 -18.5194 98.4619
lradius 54.6429
lwrist 51.1587
lhand -14.3401 40.3016
lfingers 7.12502
lthumb 11.8011 69.9491
rfemur -16.3394 -2.53819 23.3452
rtibia 33.0184
rfoot -20.6093 4.28462
rtoes 3.65452
lfemur -29.5852 -2.06923 -11.7598
ltibia 21.3734
lfoot -10.3994 16.9975
ltoes -8.91931
2482
root 5.15769 17.6694 1.47085 13.5243 -77.5512 -6.08164
lowerback 6.28918 0.692827 1.43461
upperback 3.50932 0.887835 4.3333
thorax 0.0473757 0.367977 3.60993
lowerneck -19.0035 -0.46152 -10.8004
upperneck 32.7258 -0.210752 7.68342
head 14.4346 -0.582369 4.97225
rclavicle -1.98785e-014 -1.43125e-014
rhumerus -4.75482 29.2634 -98.2953
rradius 61.7465
rwrist 5.16864
rhand -41.0773 5.71578
rfingers 7.12502
rthumb -14.0061 -23.7924
lclavicle -1.98785e-014 -1.43125e-014
lhumerus 3.44908 -19.2859 97.7988
lradius 54.2282
lwrist 50.116
lhand -14.3462 40.828
lfingers 7.12502
lthumb 11.7953 70.4759
rfemur -16.3712 -2.35266 23.6808
rtibia 33.1604
rfoot -20.5043 4.579
rtoes 3.05182
lfemur -29.3803 -1.49412 -11.5359
ltibia 21.4863
lfoot -10.2269 15.9345
ltoes -9.43277
2483
root 5.17237 17.6718 1.45992 12.5635 -78.3007 -5.30357
lowerback 6.63819 0.724343 1.26639
upperback 3.55995 0.930116 4.23605
thorax -0.0976683 0.387389 3.59836
lowerneck -18.9207 -0.430375 -10.4373
upperneck 32.938 -0.315942 7.62032
head 14.5233 -0.605664 4.87227
rclavicle 3.97569e-015 4.77083e-015
rhumerus -4.14283 28.6364 -98.2657
rradius 60.9902
rwrist 5.55859
rhand -40.0048 6.8262
rfingers 7.12502
rthumb -12.9724 -22.7505
lclavicle 3.97569e-015 4.77083e-015
lhumerus 3.59338 -19.8671 97.1869
lradius 53.7583
lwrist 48.3882
lhand -14.6439 40.9993
lfingers 7.12502
lthumb 11.5081 70.6634
rfemur -16.3594 -2.01831 23.3698
rtibia 33.3842
rfoot -20.4003 4.84609
rtoes 2.55997
lfemur -28.9683 -1.45591 -11.7375
ltibia 21.4516
lfoot -10.1181 15.4169
ltoes -9.09315
2484
root 5.19314 17.6765 1.44649 10.0369 -79.034 -3.01038
lowerback 7.09611 0.789083 0.903175
upperback 3.65594 1.00597 4.01532
thorax -0.259421 0.42306 3.56505
lowerneck -18.8833 -0.447502 -10.0621
upperneck 33.1365 -0.494474 7.57188
head 14.6254 -0.654412 4.76407
rclavicle 5.56597e-015 -1.27222e-014
rhumerus -3.23377 25.9086 -99.3296
rradius 59.4153
rwrist 8.19066
rhand -38.8488 8.32048
rfingers 7.12502
rthumb -11.8579 -21.3238
lclavicle 5.56597e-015 -1.27222e-014
lhumerus 3.79074 -20.3862 96.5963
lradius 53.1216
lwrist 45.6191
lhand -14.2097 41.0578
lfingers 7.12502
lthumb 11.9269 70.6981
rfemur -16.2359 -1.63739 22.7566
rtibia 33.4813
rfoot -20.248 5.09055
rtoes 3.35881
lfemur -28.576 -1.63834 -12.1697
ltibia 21.5174
lfoot -9.90353 14.9435
ltoes -9.33345
2485
root 5.20702 17.6821 1.43839 8.25024 -79.6941 -1.27349
lowerback 7.21683 0.881632 0.74366
upperback 3.74384 1.11834 3.84853
thorax -0.241952 0.478225 3.47268
lowerneck -18.7986 -0.501504 -9.79055
upperneck 33.228 -0.683403 7.51813
head 14.6698 -0.716014 4.66347
rclavicle 1.51076e-014 -4.13472e-014
rhumerus -2.75582 25.6395 -98.863
rradius 59.5188
rwrist 8.9395
rhand -38.6822 8.19848
rfingers 7.12502
rthumb -11.6972 -21.455
lclavicle 1.51076e-014 -4.13472e-014
lhumerus 4.01904 -20.9769 95.9858
lradius 52.4379
lwrist 42.0948
lhand -12.8557 40.7352
lfingers 7.12502
lthumb 13.2323 70.2952
rfemur -16.2895 -1.25444 22.3057
rtibia 33.6195
rfoot -20.2043 5.42071
rtoes 4.62325
lfemur -28.3459 -1.39961 -12.5751
ltibia 21.4454
lfoot -9.52392 14.0679
ltoes -10.4701
2486
root 5.21576 17.6871 1.43781 7.82149 -80.28 -0.771035
lowerback 7.16138 0.863963 0.836565
upperback 3.78394 1.09513 3.8232
thorax -0.166324 0.466575 3.39647
lowerneck -18.7877 -0.561585 -9.78153
upperneck 33.3849 -0.784965 7.47055
head 14.7522 -0.775137 4.63135
rclavicle 1.43125e-014 -3.49861e-014
rhumerus -2.25894 25.7109 -98.395
rradius 59.0994
rwrist 9.65615
rhand -38.5464 7.95028
rfingers 7.12502
rthumb -11.5662 -21.7106
lclavicle 1.43125e-014 -3.49861e-014
lhumerus 4.10484 -21.4017 95.4408
lradius 51.8395
lwrist 38.65
lhand -11.8891 40.0242
lfingers 7.12502
lthumb 14.1638 69.5213
rfemur -16.4898 -0.97526 22.1392
rtibia 33.7686
rfoot -20.1286 5.67401
rtoes 5.08785
lfemur -28.2687 -1.35974 -12.6276
ltibia 21.3591
lfoot -9.35267 13.3815
ltoes -10.6627
2487
root 5.22352 17.6902 1.43943 7.46233 -80.8845 -0.363497
lowerback 7.10779 0.714557 0.876636
upperback 3.87145 0.888206 3.90222
thorax -0.0354541 0.359081 3.47233
lowerneck -19.0073 -0.552371 -10.0026
upperneck 33.6472 -0.692412 7.46371
head 14.9144 -0.777143 4.70048
rclavicle -7.55382e-015 3.33958e-014
rhumerus -1.7656 26.4313 -97.8239
rradius 58.4863
rwrist 10.0496
rhand -38.3389 7.441
rfingers 7.12502
rthumb -11.3661 -22.231
lclavicle -7.55382e-015 3.33958e-014
lhumerus 4.14825 -21.2732 95.0185
lradius 51.2226
lwrist 35.2751
lhand -11.5695 39.5241
lfingers 7.12502
lthumb 14.4718 68.9994
rfemur -16.6893 -0.807141 21.989
rtibia 33.9208
rfoot -19.9148 6.10007
rtoes 5.701
lfemur -28.1778 -1.67644 -12.5032
ltibia 21.3053
lfoot -9.38216 13.0333
ltoes -10.282
2488
root 5.22966 17.6928 1.44333 5.98407 -81.5736 1.20588
lowerback 6.96316 0.631127 0.815296
upperback 4.00363 0.760113 3.85738
thorax 0.187898 0.291137 3.47122
lowerneck -19.1914 -0.497936 -10.0417
upperneck 33.8516 -0.61973 7.51638
head 15.0429 -0.753854 4.75633
rclavicle 1.55052e-014 -7.95139e-015
rhumerus -1.38945 26.9709 -97.2779
rradius 57.8977
rwrist 10.3869
rhand -38.0777 7.05964
rfingers 7.12502
rthumb -11.1143 -22.626
lclavicle 1.55052e-014 -7.95139e-015
lhumerus 4.22869 -21.2159 94.5747
lradius 50.4698
lwrist 31.7054
lhand -11.4021 38.9526
lfingers 7.12502
lthumb 14.6331 68.4163
rfemur -16.9545 -0.719934 21.6359
rtibia 34.1037
rfoot -19.6285 6.70249
rtoes 6.64502
lfemur -28.1241 -1.88128 -12.5879
ltibia 21.2589
lfoot -9.31173 12.629
ltoes -10.2415
2489
root 5.23628 17.6919 1.447 3.33027 -82.2453 3.98553
lowerback 6.79876 0.60398 0.602076
upperback 4.15179 0.698716 3.79289
thorax 0.433463 0.254202 3.53071
lowerneck -19.2449 -0.439611 -9.975
upperneck 33.878 -0.516717 7.40096
head 15.0546 -0.719664 4.71449
rclavicle -8.34896e-015 -2.54444e-014
rhumerus -1.12238 27.8092 -96.3481
rradius 57.4815
rwrist 10.2508
rhand -37.9233 6.90839
rfingers 7.12502
rthumb -10.9653 -22.7853
lclavicle -8.34896e-015 -2.54444e-014
lhumerus 4.27862 -21.2502 94.23
lradius 49.7722
lwrist 28.3015
lhand -11.6389 38.2851
lfingers 7.12502
lthumb 14.4049 67.7652
rfemur -17.266 -0.469155 21.1551
rtibia 34.3245
rfoot -19.4874 7.11042
rtoes 7.1844
lfemur -28.1251 -2.01496 -12.8462
ltibia 21.22
lfoot -9.10724 12.2158
ltoes -9.92765
